<svg width="36" height="34" viewBox="0 0 36 34" fill="none" xmlns="http://www.w3.org/2000/svg">
<path d="M15.4286 33.0714H20.5714" stroke="white" stroke-linecap="round" stroke-linejoin="round"/>
<path d="M28.2857 13.7857C28.2857 11.0578 27.2021 8.44157 25.2731 6.51261C23.3441 4.58368 20.7279 3.5 18 3.5C15.272 3.5 12.6558 4.58368 10.7269 6.51261C8.79794 8.44157 7.71426 11.0578 7.71426 13.7857V22.7857C7.71426 23.8087 7.30787 24.7899 6.58453 25.5132C5.86118 26.2366 4.88008 26.6429 3.85712 26.6429H32.1428C31.1199 26.6429 30.1387 26.2366 29.4153 25.5132C28.692 24.7899 28.2857 23.8087 28.2857 22.7857V13.7857Z" stroke="white" stroke-linecap="round" stroke-linejoin="round"/>
<path d="M1.28571 13.4514C1.28709 11.0038 1.87079 8.59163 2.98861 6.41414C4.10641 4.23665 5.72623 2.35637 7.71428 0.928589" stroke="white" stroke-linecap="round" stroke-linejoin="round"/>
<path d="M34.7143 13.4514C34.713 11.0038 34.1293 8.59163 33.0115 6.41414C31.8937 4.23665 30.2737 2.35637 28.2857 0.928589" stroke="white" stroke-linecap="round" stroke-linejoin="round"/>
</svg>
